<!-- <svg width="303" height="341" viewBox="0 0 303 341" fill="none" xmlns="http://www.w3.org/2000/svg">
<path d="M36.251 101.802H52.078C68.327 101.802 79.5114 109.407 79.5114 128.419C79.5114 147.431 68.327 155.247 52.7111 155.247H36.251V101.802ZM51.0228 144.051C58.8308 144.051 64.7396 140.882 64.7396 128.419C64.7396 115.956 58.6198 113.209 51.0228 113.209H50.3898V144.051H51.0228Z" fill="#FFFD67"/>
<path d="M85.6309 134.756C85.6309 121.025 95.5491 113.209 106.1 113.209C116.652 113.209 126.57 121.025 126.57 134.756C126.57 148.487 116.652 156.303 106.1 156.303C95.5491 156.303 85.6309 148.487 85.6309 134.756ZM112.009 134.756C112.009 128.419 110.321 124.617 106.1 124.617C101.88 124.617 100.192 128.63 100.192 134.756C100.192 140.882 101.88 144.896 106.1 144.896C110.321 144.896 112.009 141.093 112.009 134.756Z" fill="#FFFD67"/>
<path d="M133.112 140.882V98H147.251V141.305C147.251 144.051 148.517 144.896 149.572 144.896C149.994 144.896 150.416 144.896 151.05 144.685L152.738 155.035C151.261 155.669 148.939 156.092 145.774 156.092C136.278 156.303 133.112 149.966 133.112 140.882Z" fill="#FFFD67"/>
<path d="M157.592 140.882V98H171.731V141.305C171.731 144.051 172.997 144.896 174.052 144.896C174.474 144.896 174.896 144.896 175.529 144.685L177.217 155.035C175.74 155.669 173.419 156.092 170.253 156.092C160.757 156.303 157.592 149.966 157.592 140.882Z" fill="#FFFD67"/>
<path d="M113.835 61.2585L114.989 55.5198H131.724L130.794 61.2585H129.159V57.1549H124.543L122.683 67.0614C122.17 69.8186 121.689 72.5757 121.24 75.3329L124.478 75.7176L124.222 77H115.085L115.341 75.7176L118.451 75.3649L120.311 65.4584C120.567 64.0691 120.813 62.6799 121.048 61.2906C121.305 59.9013 121.54 58.5228 121.753 57.1549H116.944L115.47 61.2585H113.835ZM133.883 77.2565L133.562 77L136.672 61.7074C136.864 60.767 137.046 59.8265 137.217 58.8861C137.409 57.9243 137.58 56.9625 137.73 56.0007L134.684 55.8083L134.813 54.8786L140.359 53.2756L140.68 53.5321L138.371 64.9454C139.397 63.9409 140.509 63.0966 141.705 62.4127C142.924 61.7288 144.014 61.3868 144.976 61.3868C146.365 61.3868 147.059 62.1242 147.059 63.5989C147.059 64.1119 146.995 64.6355 146.867 65.1699C146.76 65.6828 146.643 66.2065 146.514 66.7408L145.072 72.6719C144.965 73.1207 144.869 73.5055 144.783 73.8261C144.698 74.1253 144.655 74.3604 144.655 74.5314C144.655 74.9802 144.869 75.2046 145.296 75.2046C145.681 75.2046 146.151 75.0016 146.707 74.5955C147.284 74.1894 147.861 73.623 148.438 72.8963L149.207 73.5055C148.801 74.1253 148.299 74.7451 147.701 75.3649C147.124 75.9634 146.493 76.455 145.809 76.8397C145.125 77.2244 144.42 77.4168 143.693 77.4168C143.18 77.4168 142.774 77.2885 142.475 77.0321C142.197 76.7756 142.058 76.4443 142.058 76.0382C142.058 75.6749 142.101 75.3222 142.186 74.9802C142.293 74.6169 142.421 74.1039 142.571 73.4413L143.95 67.7988C144.078 67.2431 144.195 66.7194 144.302 66.2278C144.409 65.7363 144.463 65.3302 144.463 65.0096C144.463 64.4539 144.366 64.0691 144.174 63.8554C143.982 63.6417 143.704 63.5348 143.341 63.5348C142.763 63.5348 142.037 63.7699 141.16 64.2401C140.284 64.689 139.258 65.3836 138.083 66.324L137.249 70.2674C137.035 71.3788 136.822 72.5009 136.608 73.6337C136.394 74.7451 136.202 75.8672 136.031 77L133.883 77.2565ZM160.331 62.7654C159.839 62.7654 159.294 62.9577 158.695 63.3424C158.118 63.7272 157.552 64.2615 156.996 64.9454C156.441 65.6294 155.97 66.4202 155.586 67.3179C155.222 68.1942 154.998 69.1346 154.912 70.1392C156.686 69.6262 158.097 69.0598 159.144 68.44C160.213 67.7988 160.972 67.1576 161.421 66.5164C161.891 65.8538 162.126 65.234 162.126 64.6569C162.126 64.0584 161.955 63.5989 161.613 63.2783C161.292 62.9363 160.865 62.7654 160.331 62.7654ZM157.509 77.4168C156.099 77.4168 154.934 76.9359 154.015 75.9741C153.117 75.0123 152.668 73.5055 152.668 71.4536C152.668 70.1712 152.893 68.9316 153.341 67.7347C153.79 66.5164 154.399 65.437 155.169 64.4966C155.938 63.5348 156.825 62.776 157.83 62.2203C158.856 61.6646 159.924 61.3868 161.036 61.3868C162.083 61.3868 162.874 61.6433 163.408 62.1562C163.964 62.6692 164.242 63.3959 164.242 64.3363C164.242 65.0202 163.975 65.779 163.44 66.6126C162.906 67.4247 161.955 68.2476 160.587 69.0812C159.241 69.9147 157.349 70.6842 154.912 71.3895C154.977 72.7574 155.297 73.7406 155.874 74.339C156.451 74.9161 157.231 75.2046 158.215 75.2046C159.219 75.2046 160.085 74.9482 160.811 74.4352C161.538 73.9222 162.115 73.3986 162.543 72.8643L163.28 73.4413C162.617 74.5314 161.784 75.4718 160.779 76.2626C159.775 77.0321 158.685 77.4168 157.509 77.4168Z" fill="#FFFD67"/>
<path d="M180.382 143.628C180.382 134.967 186.924 130.32 202.751 128.63C202.329 125.673 200.64 124.405 197.053 124.405C194.099 124.405 190.933 125.462 186.713 127.785L181.859 118.491C187.557 115.111 193.465 113.209 199.796 113.209C210.559 113.209 216.889 118.913 216.889 132.433V155.247H205.283L204.228 151.233H203.806C200.429 154.19 196.842 156.092 192.41 156.092C185.024 156.303 180.382 150.388 180.382 143.628ZM202.751 142.572V136.869C195.998 137.925 193.888 140.037 193.888 142.361C193.888 144.262 195.154 145.318 197.686 145.318C200.007 145.53 201.273 144.262 202.751 142.572Z" fill="#FFFD67"/>
<path d="M226.175 114.054H237.781L238.836 121.237H239.258C242.213 115.533 246.855 113.209 250.865 113.209C253.397 113.209 254.874 113.632 255.93 114.054L253.608 126.306C252.131 125.884 250.865 125.673 248.966 125.673C246.011 125.673 242.424 127.574 240.314 132.644V155.458H226.175V114.054Z" fill="#FFFD67"/>
<path d="M35.1953 178.231H49.3341V198.088H65.3721V178.231H79.5109V231.676H65.3721V210.551H49.3341V231.887H35.1953V178.231Z" fill="#FFFD67"/>
<path d="M87.9521 211.185C87.9521 197.454 97.8704 189.638 108.422 189.638C118.973 189.638 128.891 197.454 128.891 211.185C128.891 224.916 118.973 232.732 108.422 232.732C97.8704 232.732 87.9521 224.916 87.9521 211.185ZM114.33 211.185C114.33 204.848 112.642 201.045 108.422 201.045C104.201 201.045 102.513 205.059 102.513 211.185C102.513 217.311 104.201 221.325 108.422 221.325C112.642 221.325 114.33 217.522 114.33 211.185Z" fill="#FFFD67"/>
<path d="M135.434 217.311V174.429H149.572V217.734C149.572 220.48 150.839 221.325 151.894 221.325C152.316 221.325 152.738 221.325 153.371 221.113L155.059 231.464C153.582 232.098 151.261 232.521 148.095 232.521C138.599 232.732 135.434 226.606 135.434 217.311Z" fill="#FFFD67"/>
<path d="M159.912 217.311V174.429H174.051V217.734C174.051 220.48 175.317 221.325 176.372 221.325C176.794 221.325 177.216 221.325 177.849 221.113L179.538 231.464C178.06 232.098 175.739 232.521 172.574 232.521C163.078 232.732 159.912 226.606 159.912 217.311Z" fill="#FFFD67"/>
<path d="M182.281 211.185C182.281 197.877 191.988 189.638 202.118 189.638C214.357 189.638 220.055 198.511 220.055 209.495C220.055 212.03 219.633 214.354 219.422 215.41H195.998C197.264 220.269 200.852 221.958 205.494 221.958C208.238 221.958 210.981 221.114 213.935 219.424L218.578 227.873C214.146 231.042 208.238 232.732 203.595 232.732C191.566 232.732 182.281 224.916 182.281 211.185ZM208.027 206.327C208.027 203.158 206.76 200.412 202.329 200.412C199.163 200.412 196.631 202.313 195.787 206.327H208.027Z" fill="#FFFD67"/>
<path d="M227.651 190.695H239.258L240.313 197.877H240.735C243.689 192.173 248.332 189.85 252.341 189.85C254.874 189.85 256.351 190.272 257.406 190.695L255.085 202.947C253.608 202.524 252.341 202.313 250.442 202.313C247.488 202.313 243.9 204.214 241.79 209.284V232.098H227.651V190.695Z" fill="#FFFD67"/>
<path d="M14.4961 12.0001C12.9961 10.3001 10.9961 9.80009 8.8961 10.3001C7.5961 10.6001 6.39609 11.3001 4.99609 11.9001C9.09609 16.8001 13.0961 21.5001 17.0961 26.3001C19.4961 29.1001 22.2961 29.7001 25.9961 27.9001C23.9961 24.7001 22.2961 21.7001 20.3961 18.9001C18.5961 16.5001 16.4961 14.3001 14.4961 12.0001Z" fill="#7F5BDC"/>
<path d="M0.180029 129.923C1.16633 130.917 1.9449 131.632 2.56809 132.472C3.4767 133.53 4.43235 133.716 5.7909 133.319C7.22352 132.925 8.72297 132.67 10.2188 132.482C14.5618 131.842 18.9752 131.273 23.3218 130.566C24.5955 130.366 25.8023 130.028 27.2349 129.634C25.4394 127.117 23.2643 126.125 20.3468 126.506C14.582 127.338 8.81725 128.17 3.05251 129.002C2.15283 129.155 1.31276 129.58 0.180029 129.923Z" fill="#7F5BDC"/>
<path d="M254.78 28.7044C256.179 28.6384 257.231 28.539 258.273 28.6394C259.667 28.6734 260.445 28.0885 261.06 26.8136C261.728 25.4865 262.543 24.2022 263.405 22.9655C265.84 19.3126 268.374 15.6549 270.761 11.9543C271.466 10.8746 272.023 9.75194 272.691 8.42477C269.619 8.07123 267.426 9.0218 265.754 11.4428C262.509 16.2802 259.265 21.1175 256.021 25.9548C255.532 26.7254 255.285 27.6341 254.78 28.7044Z" fill="#7F5BDC"/>
<path d="M134.311 29.0273C134.411 30.0273 135.111 31.7273 135.711 31.8273C138.211 32.4273 140.711 33.8273 142.911 32.2273C143.211 24.2273 145.211 16.8273 146.311 8.92725C145.611 8.62725 145.011 8.42725 144.411 8.22725C143.911 8.12725 143.411 7.92725 142.911 8.02725C138.711 8.82725 137.111 7.72725 136.211 13.4273C135.611 16.9273 134.911 20.4273 134.311 23.9273C134.211 25.7273 134.111 27.4273 134.311 29.0273Z" fill="#7F5BDC"/>
<path d="M268.195 223.32C273.795 227.82 279.495 231.32 285.995 233.02C288.195 233.62 290.895 233.02 292.995 230.92C292.095 230.32 291.595 229.82 290.895 229.52C286.695 227.12 282.495 224.82 278.395 222.32C275.195 220.42 272.195 220.42 268.195 223.32Z" fill="#7F5BDC"/>
<path d="M271.803 43.936C268.568 46.7118 265.497 49.6576 262.391 52.5022C261.663 53.1972 261.132 54.1632 260.128 55.6261C268.05 55.6619 271.849 50.109 276.677 46.3475C278.105 45.1919 279.63 44.0041 279.412 40.8144C278.734 40.7049 277.734 40.5913 276.796 40.3443C274.937 40.8569 273.198 42.6793 271.803 43.936Z" fill="#7F5BDC"/>
<path d="M23.5953 252.151C20.7953 257.651 18.0953 263.251 15.1953 269.151C21.9953 270.851 23.0953 270.251 25.4953 264.651C27.3953 260.051 29.5953 255.651 31.5953 251.151C32.1953 249.851 32.9953 248.551 33.6953 247.151C28.2953 246.551 25.9953 247.651 23.5953 252.151Z" fill="#7F5BDC"/>
<path d="M187.495 252.399C186.995 252.499 186.295 253.199 186.295 253.699C186.195 255.599 186.195 257.499 186.195 259.399C186.195 259.799 186.295 260.199 186.295 260.499C187.195 264.899 188.195 269.199 190.795 272.899C191.595 273.999 192.395 275.199 193.995 275.299C196.595 275.499 198.995 275.199 201.195 273.199C196.895 266.099 195.095 258.299 194.495 250.099C191.595 249.499 189.795 251.799 187.495 252.399ZM187.395 254.999C187.395 255.099 187.395 255.199 187.395 255.199C187.395 255.199 187.395 255.099 187.395 254.999Z" fill="#7F5BDC"/>
<path d="M76.4003 4.9059C72.9003 1.6059 63.8003 8.4059 58.7003 8.1059C58.0003 8.0059 57.3003 8.0059 56.7003 7.8059C56.7003 7.7059 56.8003 7.5059 56.9003 7.4059C56.9003 7.3059 57.1003 6.9059 57.1003 7.0059C56.2003 6.4059 55.4003 6.8059 54.9003 7.6059C54.9003 7.6059 54.9003 7.7059 54.8003 7.7059C54.8003 7.7059 54.8003 7.8059 54.7003 7.8059C54.0003 9.3059 54.2003 11.1059 54.3003 12.8059C54.8003 19.4059 55.3003 26.0059 55.4003 32.6059C55.9003 36.3059 54.4003 40.7059 56.0003 44.1059C56.0003 44.2059 56.0003 44.3059 56.0003 44.5059C56.1003 44.6059 56.2003 44.7059 56.3003 44.8059C56.7003 45.1059 57.1003 45.3059 57.6003 45.4059C59.6003 45.8059 61.6003 45.0059 63.5003 44.7059C65.3003 44.3059 67.0003 43.9059 68.8003 43.5059C68.7003 43.5059 68.7003 43.5059 68.6003 43.5059C69.0003 43.5059 69.4003 43.4059 69.8003 43.3059C69.7003 43.8059 69.7003 44.2059 69.8003 44.4059C69.1003 48.9059 67.9003 53.4059 66.5003 57.7059C66.1003 60.3059 62.2003 66.0059 66.5003 66.6059C71.1003 66.0059 75.8003 64.7059 80.1003 62.9059C80.2003 63.3059 80.2003 63.7059 80.3003 64.1059C80.3003 64.0059 80.3003 63.9059 80.2003 63.9059C81.7003 70.4059 82.3003 78.8059 87.9003 83.1059C89.2003 84.1059 89.4003 84.5059 90.1003 81.8059C90.7003 77.3059 90.6003 73.6059 91.3003 70.6059C91.9003 64.4059 92.5003 58.2059 93.6003 52.1059C96.3003 38.3059 98.4003 35.1059 83.5003 42.7059C86.5003 26.3059 97.6003 14.2059 72.7003 26.3059C72.8003 25.5059 72.9003 24.7059 73.0003 23.9059C73.0003 24.0059 73.0003 24.1059 72.9003 24.1059C73.9003 18.4059 75.7003 12.8059 76.8003 7.1059C77.1003 7.0059 77.2003 6.7059 77.1003 6.2059L76.4003 4.9059ZM82.5003 62.1059C82.6003 62.1059 82.6003 62.0059 82.7003 62.0059C84.8003 60.5059 87.1003 57.2059 82.8003 57.5059C77.7003 59.3059 72.7003 61.6059 67.3003 62.4059C67.7003 61.6059 71.4003 48.0059 71.9003 42.6059C75.3003 41.1059 74.8003 38.4059 68.7003 40.4059C67.1003 41.3059 59.5003 42.0059 56.9003 43.3059C58.4003 38.3059 57.1003 32.5059 57.2003 27.4059C56.5003 22.2059 57.0003 16.6059 56.1003 11.4059C56.9003 11.8059 58.1003 12.0059 59.8003 11.8059C61.2003 12.0059 70.1003 11.4059 74.6003 9.3059C73.1003 14.4059 72.0003 22.1059 71.3003 23.8059C71.3003 25.8059 69.3003 29.4059 71.7003 30.5059C76.4003 29.6059 80.6003 26.7059 85.4003 26.0059C83.7003 32.4059 81.5003 38.7059 80.2003 45.3059C77.1003 48.0059 81.0003 55.3059 82.5003 48.6059C83.4003 48.0059 84.3003 47.5059 85.2003 47.1059C85.9003 46.8059 86.6003 46.4059 87.3003 46.1059C88.9003 45.4059 90.6003 44.7059 92.3003 44.0059C92.0003 45.5059 91.7003 46.9059 91.4003 48.4059V48.3059C91.4003 48.5059 91.3003 48.7059 91.3003 48.8059C91.3003 48.7059 91.3003 48.6059 91.4003 48.6059C90.6003 53.9059 85.7003 72.0059 88.4003 79.0059" fill="#7F5BDC"/>
<path d="M141.96 281.549C143.867 280.248 146.245 279.207 146.605 276.329C147.253 271.278 148.105 266.317 148.613 261.252C148.782 259.563 148.902 257.656 147.263 256.284C142.246 257.416 140.909 259.414 140.978 264.395C141.104 268.814 140.59 273.239 140.357 277.693C140.335 278.615 140.033 279.508 140.089 280.367C140.257 281.521 141.123 282.105 141.96 281.549Z" fill="#7F5BDC"/>
<path d="M162.422 25.0058C164.539 24.0863 167.071 23.5112 167.965 20.7525C169.551 15.9127 171.321 11.2013 172.772 6.32125C173.256 4.69458 173.732 2.84442 172.38 1.18837C167.24 1.35671 165.551 3.0676 164.683 7.97329C163.975 12.3367 162.638 16.5866 161.572 20.9171C161.377 21.8184 160.912 22.639 160.806 23.4926C160.755 24.6577 161.495 25.3941 162.422 25.0058Z" fill="#7F5BDC"/>
<path d="M292.425 109.264C292.638 109.003 292.846 108.559 292.688 108.125C291.599 106.983 284.354 106.66 282.424 106.93C284.399 101.36 290.703 99.2591 293.575 94.4699C295.887 92.0343 286.299 91.5164 284.789 91.0806C286.465 88.0767 288.773 85.4585 291.159 83.0575C291.08 82.8403 291.041 82.7316 290.962 82.5144C291.075 82.6577 291.08 82.8403 291.159 83.0575C291.075 82.6577 290.849 82.3712 290.622 82.0847C290.661 82.1933 290.775 82.3366 290.814 82.4452C290.775 82.3366 290.661 82.1933 290.622 82.0847C287.895 79.8168 284.016 79.6253 280.735 78.5412C276.363 83.2598 272.701 88.5811 269.67 94.288C268.571 97.021 276.192 96.3476 277.854 97.0352C274.42 101.291 271.361 105.902 269.081 110.968C268.804 111.56 268.527 112.152 268.25 112.744C270.485 112.978 272.676 112.921 274.916 113.338C270.993 122.686 268.546 132.544 266.098 142.402C274.016 130.684 282.116 118.961 292.425 109.264Z" fill="#7F5BDC"/>
<path fill-rule="evenodd" clip-rule="evenodd" d="M102.572 257.107L66.6093 250.82L49.2297 334.076L98.3301 338.221L102.572 257.107ZM96.2189 262.233L95.0407 285.878C91.924 282.369 87.1562 279.662 81.6082 278.903C76.3964 278.19 71.2909 279.205 67.5376 281.603L72.9419 258.365L96.2189 262.233ZM94.5407 294.544L94.3712 298.289L92.5218 298.036C92.1468 299.526 91.6266 300.825 90.5791 302.223L84.8629 301.442C86.7741 299.99 87.7986 298.76 88.0055 297.247C88.0975 296.575 88.0213 295.879 87.5859 295.306C87.1505 294.732 86.524 294.304 85.8515 294.212C85.179 294.12 84.6517 294.219 84.2465 294.678C83.6961 294.945 83.0538 295.885 82.1974 297.138C81.341 298.391 80.7217 299.163 80.1023 299.934C79.506 300.538 78.5734 301.095 77.4957 301.462C76.418 301.828 75.3863 301.858 74.2094 301.697C72.3601 301.444 70.7478 300.71 69.3957 299.326C67.8984 297.752 67.1195 295.932 66.7459 293.655L64.7285 293.379L65.5705 289.726L67.2517 289.956C67.4586 288.443 68.1929 286.831 69.4775 284.951L75.3618 285.756C73.2596 287.352 71.9979 289.064 71.768 290.745C71.6301 291.754 71.8514 292.64 72.2868 293.214C72.8673 293.978 73.6619 294.429 74.5025 294.544C75.3432 294.659 76.0616 294.415 76.635 293.98C77.2083 293.544 77.8506 292.604 78.684 291.519C79.7546 289.953 80.7791 288.723 82.0709 288.044C83.3627 287.364 84.7767 287.043 86.626 287.296C88.3072 287.526 89.7514 288.237 90.7903 289.407C91.8292 290.577 92.631 292.228 93.0506 294.169L94.5637 294.376L94.5407 294.544ZM94.0321 305.778L92.7317 329.064L57.0582 326.926L62.8605 302.029C65.8623 306.379 71.0884 309.491 77.4771 310.365C83.8657 311.239 89.9497 309.33 94.0321 305.778Z" fill="#7F5BDC"/>
<path fill-rule="evenodd" clip-rule="evenodd" d="M218.867 70.3958L221.231 71.0291C221.231 71.0291 224.508 72.034 225.718 68.9381L244.338 18.8276C244.338 18.8276 245.974 15.086 241.12 14.292C240.38 14.2202 239.048 13.9901 237.48 13.6966L218.867 70.3958ZM205.03 9.05507C205.03 9.05507 201.453 8.22326 200.4 12.6276C198.705 19.9 190.367 58.5792 190.367 58.5792C190.367 58.5792 189.063 62.0296 193.672 63.2646C196.153 63.9296 204.276 66.2328 210.981 68.156L227.709 12.3451C217.347 10.8352 205.03 9.05507 205.03 9.05507ZM221.698 16.8144L213.049 45.7835L209.74 44.8968L217.876 16.4237L221.698 16.8144ZM215.827 16.5079L209.861 35.936L206.906 35.1443L212.391 16.094L215.827 16.5079Z" fill="#7F5BDC"/>
<path fill-rule="evenodd" clip-rule="evenodd" d="M238.378 266.042L238.585 269.966L246.809 271.674L247.887 266.485L238.378 266.042ZM238.864 272.067L239.23 278.169L245.301 279.429L246.501 273.653L238.864 272.067ZM239.391 280.347L239.762 285.939L243.776 286.773L244.874 281.486L239.391 280.347ZM245.832 287.2L251.315 288.338L253.098 283.194L246.93 281.913L245.832 287.2ZM253.819 281.198L255.704 275.564L248.557 274.08L247.357 279.856L253.819 281.198ZM256.425 273.569L258.591 267.074L250.102 266.638L248.963 272.121L256.405 273.667L256.425 273.569ZM253.371 288.765L257.092 289.538L260.05 284.637L255.057 283.6L253.371 288.765ZM261.26 282.744L264.516 277.394L257.76 275.991L255.875 281.625L261.26 282.744ZM265.726 275.5L270.531 267.612L260.826 267.129L258.481 273.996L265.726 275.5ZM232.672 297.948C232.265 299.907 233.527 301.701 235.387 302.087C237.247 302.473 239.139 301.232 239.526 299.372C239.912 297.511 238.671 295.62 236.81 295.233C234.872 294.729 233.078 295.99 232.672 297.948ZM247.554 301.039C247.148 302.997 248.409 304.791 250.269 305.178C252.13 305.564 254.022 304.323 254.408 302.462C254.794 300.602 253.553 298.71 251.693 298.324C249.853 297.84 247.961 299.081 247.554 301.039ZM234.633 258.013L226.506 256.325L224.167 259.721L231.412 261.225L233.993 291.584L257.002 296.362L258.065 293.213L236.231 288.678L234.633 258.013Z" fill="#7F5BDC"/>
</svg> -->


<svg width="383" height="431" viewBox="0 0 383 431" fill="none" xmlns="http://www.w3.org/2000/svg">
<path d="M18.3415 15.1786C16.4436 13.0283 13.913 12.3958 11.2559 13.0283C9.61105 13.4077 8.0927 14.2932 6.32129 15.0521C11.509 21.25 16.5701 27.1949 21.6313 33.2664C24.668 36.808 28.2108 37.567 32.8924 35.2902C30.3618 31.2426 28.2108 27.4479 25.8068 23.9063C23.5292 20.8705 20.8721 18.0878 18.3415 15.1786Z" fill="#7F5BDC"/>
<path d="M0.228284 164.337C1.47624 165.595 2.46135 166.499 3.24988 167.562C4.39953 168.9 5.60871 169.135 7.32767 168.632C9.14035 168.135 11.0376 167.812 12.9303 167.574C18.4254 166.764 24.0097 166.045 29.5094 165.151C31.1209 164.898 32.6478 164.47 34.4605 163.972C32.1887 160.788 29.4366 159.534 25.745 160.015C18.451 161.067 11.1569 162.12 3.8628 163.172C2.72446 163.366 1.66152 163.904 0.228284 164.337Z" fill="#7F5BDC"/>
<path d="M322.371 36.3074C324.142 36.224 325.473 36.0982 326.791 36.2252C328.554 36.2682 329.539 35.5284 330.317 33.9159C331.162 32.2372 332.193 30.6127 333.284 29.0485C336.365 24.4279 339.571 19.8014 342.592 15.1206C343.483 13.7548 344.188 12.3349 345.033 10.6561C341.146 10.209 338.371 11.4113 336.256 14.4736C332.151 20.5923 328.046 26.7109 323.941 32.8296C323.322 33.8043 323.01 34.9536 322.371 36.3074Z" fill="#7F5BDC"/>
<path d="M169.943 36.7161C170.07 37.981 170.955 40.1313 171.714 40.2578C174.878 41.0167 178.041 42.7876 180.824 40.7637C181.204 30.6447 183.735 21.2846 185.126 11.292C184.241 10.9125 183.482 10.6596 182.722 10.4066C182.09 10.2801 181.457 10.0271 180.824 10.1536C175.51 11.1655 173.486 9.77415 172.347 16.984C171.588 21.4111 170.702 25.8381 169.943 30.2652C169.816 32.542 169.69 34.6923 169.943 36.7161Z" fill="#7F5BDC"/>
<path d="M339.346 282.473C346.431 288.165 353.643 292.592 361.868 294.742C364.652 295.501 368.068 294.742 370.725 292.086C369.586 291.327 368.954 290.695 368.068 290.315C362.754 287.279 357.439 284.37 352.252 281.208C348.203 278.805 344.407 278.805 339.346 282.473Z" fill="#7F5BDC"/>
<path d="M343.91 55.5738C339.817 59.0849 335.93 62.8109 332.001 66.4091C331.08 67.2882 330.409 68.51 329.138 70.3605C339.162 70.4057 343.967 63.382 350.076 58.6241C351.884 57.1624 353.813 55.6599 353.538 51.6253C352.68 51.4869 351.414 51.3432 350.227 51.0307C347.875 51.6791 345.675 53.9843 343.91 55.5738Z" fill="#7F5BDC"/>
<path d="M29.8555 318.941C26.3127 325.897 22.8964 332.981 19.2271 340.444C27.831 342.594 29.2228 341.835 32.2595 334.752C34.6636 328.933 37.4472 323.368 39.9778 317.676C40.737 316.031 41.7492 314.387 42.6349 312.616C35.8024 311.857 32.8922 313.249 29.8555 318.941Z" fill="#7F5BDC"/>
<path d="M237.237 319.255C236.604 319.381 235.718 320.267 235.718 320.899C235.592 323.302 235.592 325.706 235.592 328.109C235.592 328.615 235.718 329.121 235.718 329.5C236.857 335.066 238.122 340.505 241.412 345.185C242.424 346.576 243.437 348.094 245.461 348.221C248.751 348.474 251.788 348.094 254.571 345.564C249.13 336.584 246.853 326.718 246.094 316.346C242.424 315.587 240.147 318.496 237.237 319.255ZM237.11 322.544C237.11 322.67 237.11 322.797 237.11 322.797C237.11 322.797 237.11 322.67 237.11 322.544Z" fill="#7F5BDC"/>
<path d="M96.669 6.20543C92.2405 2.03132 80.7263 10.6325 74.2733 10.2531C73.3876 10.1266 72.5019 10.1266 71.7428 9.87359C71.7428 9.7471 71.8693 9.49412 71.9958 9.36764C71.9958 9.24115 72.2489 8.73519 72.2489 8.86168C71.1101 8.10275 70.0979 8.60871 69.4652 9.62061C69.4652 9.62061 69.4652 9.7471 69.3387 9.7471C69.3387 9.7471 69.3387 9.87359 69.2122 9.87359C68.3265 11.7709 68.5795 14.0477 68.7061 16.198C69.3387 24.5462 69.9713 32.8944 70.0979 41.2427C70.7305 45.9227 68.8326 51.4882 70.857 55.7888C70.857 55.9153 70.857 56.0418 70.857 56.2947C70.9836 56.4212 71.1101 56.5477 71.2366 56.6742C71.7428 57.0537 72.2489 57.3067 72.8815 57.4331C75.4121 57.9391 77.9427 56.9272 80.3467 56.5477C82.6242 56.0418 84.7752 55.5358 87.0528 55.0299C86.9262 55.0299 86.9262 55.0299 86.7997 55.0299C87.3058 55.0299 87.8119 54.9034 88.3181 54.7769C88.1915 55.4093 88.1915 55.9153 88.3181 56.1683C87.4324 61.8602 85.914 67.5522 84.1426 72.9912C83.6365 76.2799 78.7018 83.4897 84.1426 84.2486C89.9629 83.4897 95.9098 81.8454 101.351 79.5686C101.477 80.0745 101.477 80.5805 101.604 81.0864C101.604 80.9599 101.604 80.8335 101.477 80.8335C103.375 89.0552 104.134 99.6802 111.22 105.119C112.865 106.384 113.118 106.89 114.003 103.475C114.763 97.7829 114.636 93.1028 115.522 89.3082C116.281 81.4659 117.04 73.6236 118.432 65.9078C121.848 48.4525 124.505 44.4049 105.653 54.018C109.448 33.2739 123.493 17.9688 91.9874 33.2739C92.1139 32.262 92.2405 31.2501 92.367 30.2382C92.367 30.3647 92.367 30.4912 92.2405 30.4912C93.5057 23.2813 95.7833 16.198 97.1751 8.98817C97.5547 8.86168 97.6812 8.48222 97.5547 7.84978L96.669 6.20543ZM104.387 78.5567C104.514 78.5567 104.514 78.4302 104.64 78.4302C107.297 76.5329 110.208 72.3587 104.767 72.7382C98.3138 75.015 91.9874 77.9242 85.1548 78.9361C85.6609 77.9242 90.3425 60.7218 90.9752 53.8915C95.2771 51.9941 94.6445 48.579 86.9262 51.1087C84.9018 52.2471 75.2856 53.1325 71.9958 54.7769C73.8937 48.4525 72.2489 41.1162 72.3754 34.6653C71.4897 28.0879 72.1223 21.0045 70.9836 14.4272C71.9958 14.9331 73.5142 15.1861 75.6652 14.9331C77.4366 15.1861 88.6976 14.4272 94.3914 11.7709C92.4935 18.2218 91.1017 27.9614 90.216 30.1117C90.216 32.6415 87.6854 37.195 90.7221 38.5864C96.669 37.448 101.983 33.7798 108.057 32.8944C105.906 40.9897 103.122 48.9584 101.477 57.3066C97.5547 60.7218 102.489 69.9555 104.387 61.4808C105.526 60.7218 106.665 60.0894 107.804 59.5834C108.689 59.204 109.575 58.698 110.461 58.3186C112.485 57.4331 114.636 56.5477 116.787 55.6623C116.407 57.5596 116.028 59.3305 115.648 61.2278V61.1013C115.648 61.3543 115.522 61.6072 115.522 61.7337C115.522 61.6072 115.522 61.4808 115.648 61.4808C114.636 68.1846 108.436 91.079 111.852 99.9332" fill="#7F5BDC"/>
<path d="M179.62 356.126C182.033 354.48 185.043 353.164 185.497 349.524C186.318 343.134 187.396 336.86 188.038 330.452C188.252 328.317 188.404 325.905 186.33 324.169C179.982 325.601 178.291 328.128 178.378 334.429C178.537 340.018 177.887 345.616 177.592 351.249C177.565 352.415 177.182 353.545 177.253 354.631C177.466 356.09 178.561 356.829 179.62 356.126Z" fill="#7F5BDC"/>
<path d="M205.511 31.6294C208.19 30.4664 211.394 29.7389 212.525 26.2494C214.532 20.1278 216.772 14.1683 218.608 7.99567C219.22 5.93812 219.822 3.59789 218.112 1.50319C211.608 1.71612 209.471 3.8802 208.372 10.0853C207.477 15.6046 205.785 20.9801 204.436 26.4577C204.19 27.5977 203.601 28.6357 203.467 29.7155C203.402 31.1891 204.338 32.1206 205.511 31.6294Z" fill="#7F5BDC"/>
<path d="M370.004 138.206C370.272 137.876 370.535 137.314 370.336 136.765C368.957 135.321 359.791 134.913 357.349 135.254C359.848 128.208 367.825 125.551 371.459 119.493C374.384 116.413 362.252 115.757 360.342 115.206C362.462 111.407 365.382 108.095 368.401 105.058C368.301 104.783 368.251 104.646 368.152 104.371C368.295 104.552 368.301 104.783 368.401 105.058C368.295 104.552 368.008 104.19 367.722 103.827C367.771 103.965 367.915 104.146 367.965 104.283C367.915 104.146 367.771 103.965 367.722 103.827C364.271 100.959 359.363 100.717 355.212 99.3454C349.68 105.314 345.046 112.045 341.211 119.263C339.821 122.72 349.464 121.868 351.567 122.738C347.222 128.121 343.351 133.954 340.466 140.362C340.115 141.11 339.765 141.859 339.414 142.608C342.243 142.904 345.015 142.832 347.85 143.359C342.886 155.183 339.789 167.653 336.691 180.122C346.71 165.3 356.959 150.472 370.004 138.206Z" fill="#7F5BDC"/>
<path fill-rule="evenodd" clip-rule="evenodd" d="M114.411 338.498L76.6211 311.941L11.8884 397.882L65.8751 429.059L114.411 338.498ZM104.377 340.945L90.2957 367.375C88.6167 361.681 84.6155 356.015 78.6716 352.16C73.088 348.539 66.696 346.952 61.1071 347.676L79.8086 323.987L104.377 340.945ZM85.0564 377.025L82.8458 381.22L80.8645 379.935C79.6327 381.439 78.3376 382.646 76.3853 383.682L70.2614 379.71C73.2311 379.078 75.0665 378.221 76.1182 376.601C76.5857 375.881 76.873 375.044 76.6832 374.153C76.4934 373.262 76.0067 372.435 75.2862 371.968C74.5657 371.5 73.9085 371.33 73.1977 371.636C72.4237 371.646 71.1822 372.376 69.5269 373.349C67.8715 374.322 66.7469 374.872 65.6223 375.422C64.6145 375.792 63.2465 375.928 61.8152 375.767C60.3839 375.607 59.1864 375.086 57.9256 374.268C55.9443 372.983 54.4937 371.275 53.6906 368.963C52.8243 366.354 52.9122 363.853 53.7109 361.045L51.5495 359.643L54.4806 355.915L56.2817 357.083C57.3334 355.463 59.0424 354.013 61.5253 352.553L67.8294 356.642C64.5627 357.337 62.1966 358.617 61.028 360.417C60.3269 361.498 60.1028 362.632 60.2926 363.522C60.5456 364.71 61.2125 365.654 62.1131 366.238C63.0137 366.822 63.9679 366.929 64.8588 366.74C65.7497 366.55 66.9912 365.82 68.5297 365.027C70.5988 363.811 72.4342 362.954 74.2793 362.872C76.1244 362.789 77.916 363.183 79.8972 364.468C81.6984 365.637 82.9689 367.228 83.5285 369.126C84.0882 371.024 84.1172 373.346 83.5522 375.794L85.1733 376.845L85.0564 377.025ZM78.4246 389.61L64.3964 415.563L24.7022 393.912L44.7524 368.538C45.8472 375.133 50.155 381.509 56.9994 385.948C63.8439 390.387 71.8376 391.478 78.4246 389.61Z" fill="#7F5BDC"/>
<path fill-rule="evenodd" clip-rule="evenodd" d="M276.931 89.0422L279.922 89.8433C279.922 89.8433 284.069 91.1143 285.599 87.1984L309.159 23.8146C309.159 23.8146 311.229 19.0819 305.088 18.0776C304.15 17.9868 302.465 17.6957 300.481 17.3244L276.931 89.0422ZM259.423 11.4535C259.423 11.4535 254.897 10.4013 253.564 15.9723C251.419 25.171 240.87 74.0956 240.87 74.0956C240.87 74.0956 239.22 78.46 245.051 80.0221C248.192 80.8633 258.469 83.7765 266.953 86.2091L288.118 15.6149C275.007 13.7052 259.423 11.4535 259.423 11.4535ZM280.513 21.2682L269.569 57.9106L265.382 56.7891L275.677 20.7739L280.513 21.2682ZM273.084 20.8804L265.536 45.4547L261.797 44.4533L268.737 20.3569L273.084 20.8804Z" fill="#7F5BDC"/>
<path fill-rule="evenodd" clip-rule="evenodd" d="M301.617 336.512L301.879 341.475L312.285 343.636L313.649 337.072L301.617 336.512ZM302.231 344.132L302.696 351.851L310.376 353.445L311.894 346.138L302.231 344.132ZM302.899 354.606L303.368 361.679L308.447 362.733L309.836 356.046L302.899 354.606ZM311.049 363.274L317.986 364.714L320.243 358.206L312.438 356.586L311.049 363.274ZM321.155 355.683L323.54 348.556L314.496 346.678L312.978 353.985L321.155 355.683ZM324.452 346.032L327.192 337.816L316.451 337.266L315.01 344.201L324.426 346.156L324.452 346.032ZM320.588 365.254L325.295 366.231L329.039 360.032L322.72 358.721L320.588 365.254ZM330.57 357.637L334.689 350.87L326.141 349.096L323.756 356.223L330.57 357.637ZM336.221 348.475L342.299 338.498L330.02 337.887L327.053 346.572L336.221 348.475ZM294.397 376.869C293.882 379.346 295.479 381.615 297.832 382.104C300.186 382.593 302.58 381.023 303.069 378.67C303.558 376.317 301.987 373.924 299.633 373.435C297.181 372.797 294.911 374.392 294.397 376.869ZM313.228 380.779C312.713 383.255 314.309 385.525 316.663 386.013C319.017 386.502 321.411 384.932 321.9 382.579C322.388 380.226 320.818 377.833 318.464 377.344C316.136 376.732 313.742 378.302 313.228 380.779ZM296.878 326.356L286.595 324.221L283.636 328.516L292.803 330.419L296.069 368.819L325.182 374.863L326.527 370.879L298.9 365.144L296.878 326.356Z" fill="#7F5BDC"/>
<path d="M53.1857 147.408V143.952H73.7937V147.408L68.9937 147.92C68.9511 150.523 68.9084 153.147 68.8657 155.792C68.8657 158.437 68.8657 161.104 68.8657 163.792V166.096C68.8657 168.741 68.8657 171.408 68.8657 174.096C68.9084 176.741 68.9511 179.387 68.9937 182.032L73.7937 182.544V186H53.1857V182.544L57.9857 182.032C58.0711 179.429 58.1137 176.805 58.1137 174.16C58.1137 171.515 58.1137 168.848 58.1137 166.16V163.792C58.1137 161.147 58.1137 158.501 58.1137 155.856C58.1137 153.168 58.0711 150.523 57.9857 147.92L53.1857 147.408ZM107.63 147.408V143.952H124.462V147.408L119.022 148.24V186.128H113.646L91.1182 154.896V181.712L98.4142 182.544V186H81.5182V182.544L86.9582 181.776V149.072L86.0622 147.856L81.6462 147.408V143.952H96.1102L114.926 169.808V148.24L107.63 147.408ZM158.417 147.216V143.952H172.305V147.408L167.505 148.176L154.321 186.128H148.113L134.353 147.792L130.641 147.408V143.952H151.249V147.216L145.809 147.92L154.577 174.288L163.409 148.048L158.417 147.216ZM195.995 187.216C193.35 187.216 190.811 186.768 188.379 185.872C185.947 184.933 183.771 183.547 181.851 181.712C179.974 179.835 178.481 177.509 177.371 174.736C176.262 171.963 175.707 168.699 175.707 164.944C175.707 161.275 176.262 158.053 177.371 155.28C178.481 152.507 179.995 150.203 181.915 148.368C183.835 146.491 186.011 145.083 188.443 144.144C190.875 143.205 193.393 142.736 195.995 142.736C198.641 142.736 201.158 143.205 203.547 144.144C205.979 145.04 208.155 146.405 210.075 148.24C211.995 150.075 213.51 152.4 214.619 155.216C215.729 157.989 216.283 161.232 216.283 164.944C216.283 168.656 215.729 171.899 214.619 174.672C213.51 177.445 211.995 179.771 210.075 181.648C208.198 183.483 206.043 184.869 203.611 185.808C201.179 186.747 198.641 187.216 195.995 187.216ZM195.995 183.504C198.171 183.504 199.899 182.693 201.179 181.072C202.502 179.451 203.462 177.253 204.059 174.48C204.657 171.664 204.955 168.485 204.955 164.944C204.955 161.403 204.657 158.245 204.059 155.472C203.462 152.699 202.502 150.501 201.179 148.88C199.899 147.259 198.171 146.448 195.995 146.448C193.862 146.448 192.134 147.259 190.811 148.88C189.489 150.501 188.529 152.699 187.931 155.472C187.334 158.245 187.035 161.403 187.035 164.944C187.035 168.485 187.334 171.664 187.931 174.48C188.529 177.253 189.489 179.451 190.811 181.072C192.134 182.693 193.862 183.504 195.995 183.504ZM223.546 147.408V143.952H244.154V147.408L239.354 147.92C239.311 150.523 239.268 153.147 239.226 155.792C239.226 158.437 239.226 161.104 239.226 163.792V166.096C239.226 168.741 239.226 171.408 239.226 174.096C239.268 176.741 239.311 179.387 239.354 182.032L244.154 182.544V186H223.546V182.544L228.346 182.032C228.431 179.429 228.474 176.805 228.474 174.16C228.474 171.515 228.474 168.848 228.474 166.16V163.792C228.474 161.147 228.474 158.501 228.474 155.856C228.474 153.168 228.431 150.523 228.346 147.92L223.546 147.408ZM273.595 187.216C269.499 187.216 265.766 186.405 262.395 184.784C259.025 183.12 256.337 180.645 254.331 177.36C252.369 174.075 251.387 169.936 251.387 164.944C251.387 161.147 251.985 157.861 253.179 155.088C254.417 152.315 256.081 150.011 258.171 148.176C260.305 146.341 262.737 144.976 265.467 144.08C268.198 143.184 271.057 142.736 274.043 142.736C276.475 142.736 278.694 143.013 280.699 143.568C282.705 144.08 284.667 144.869 286.587 145.936L286.843 155.856H281.979L280.123 147.472C278.673 146.747 277.137 146.384 275.515 146.384C273.254 146.384 271.142 147.024 269.179 148.304C267.259 149.584 265.702 151.611 264.507 154.384C263.313 157.115 262.715 160.656 262.715 165.008C262.715 169.36 263.291 172.901 264.443 175.632C265.595 178.32 267.11 180.304 268.987 181.584C270.907 182.864 272.998 183.504 275.259 183.504C276.155 183.504 277.051 183.397 277.947 183.184C278.843 182.971 279.739 182.672 280.635 182.288L282.427 174.096H287.291L287.035 183.952C285.329 184.891 283.345 185.659 281.083 186.256C278.865 186.896 276.369 187.216 273.595 187.216ZM294.976 147.408V143.952H327.616L328.064 154.96H322.752L321.472 147.536H310.784C310.741 149.968 310.698 152.421 310.656 154.896C310.656 157.371 310.656 159.867 310.656 162.384H317.568L318.336 157.392H322.048V171.152H318.336L317.568 166.16H310.656C310.656 169.104 310.656 171.899 310.656 174.544C310.698 177.189 310.741 179.813 310.784 182.416H322.752L324.032 174.992H329.344L328.896 186H294.976V182.544L299.776 182.032C299.861 179.429 299.904 176.805 299.904 174.16C299.904 171.515 299.904 168.848 299.904 166.16V163.792C299.904 161.147 299.904 158.501 299.904 155.856C299.904 153.168 299.861 150.523 299.776 147.92L294.976 147.408ZM110.196 227.408V223.952H142.836L143.284 234.96H137.972L136.692 227.536H126.004C125.961 229.968 125.918 232.421 125.876 234.896C125.876 237.371 125.876 239.867 125.876 242.384H132.788L133.556 237.392H137.268V251.152H133.556L132.788 246.16H125.876C125.876 249.104 125.876 251.899 125.876 254.544C125.918 257.189 125.961 259.813 126.004 262.416H137.972L139.252 254.992H144.564L144.116 266H110.196V262.544L114.996 262.032C115.081 259.429 115.124 256.805 115.124 254.16C115.124 251.515 115.124 248.848 115.124 246.16V243.792C115.124 241.147 115.124 238.501 115.124 235.856C115.124 233.168 115.081 230.523 114.996 227.92L110.196 227.408ZM168.546 233.744L163.234 250.064H173.73L168.546 233.744ZM150.562 266V262.544L155.746 261.776L168.738 223.888H175.33L188.45 262.224L192.354 262.672V266H172.578V262.672L177.506 262.032L174.882 253.776H162.018L159.458 261.776L164.322 262.544V266H150.562ZM213.078 267.216C210.688 267.216 208.235 266.939 205.718 266.384C203.2 265.829 201.024 264.976 199.19 263.824L199.574 254.352H205.526L206.806 262.224C207.787 262.608 208.768 262.907 209.75 263.12C210.731 263.291 211.819 263.376 213.014 263.376C215.318 263.376 217.067 262.8 218.262 261.648C219.456 260.453 220.054 259.003 220.054 257.296C220.054 255.589 219.606 254.267 218.71 253.328C217.856 252.389 216.47 251.493 214.55 250.64L211.798 249.424C208.043 247.675 205.12 245.733 203.03 243.6C200.982 241.467 199.958 238.629 199.958 235.088C199.958 231.248 201.387 228.24 204.246 226.064C207.147 223.845 211.008 222.736 215.83 222.736C218.134 222.736 220.331 223.035 222.422 223.632C224.555 224.187 226.39 224.976 227.926 226L227.414 234.96H221.526L220.31 227.408C219.627 227.152 218.944 226.96 218.262 226.832C217.579 226.661 216.832 226.576 216.022 226.576C214.187 226.576 212.63 227.109 211.35 228.176C210.07 229.243 209.43 230.651 209.43 232.4C209.43 234.107 209.92 235.472 210.902 236.496C211.926 237.477 213.376 238.395 215.254 239.248L218.262 240.592C222.315 242.427 225.238 244.368 227.03 246.416C228.864 248.421 229.782 251.045 229.782 254.288C229.782 258.043 228.352 261.136 225.494 263.568C222.678 266 218.539 267.216 213.078 267.216ZM234.491 227.408V223.952H255.099V227.408L250.299 227.984L257.595 244.176L264.955 228.112L260.539 227.408V223.952H273.787V227.408L269.115 228.176L259.451 247.824C259.451 251.067 259.451 253.755 259.451 255.888C259.451 258.021 259.472 260.048 259.515 261.968L265.083 262.544V266H243.131V262.544L248.635 261.968C248.677 260.219 248.699 258.384 248.699 256.464C248.699 254.544 248.699 252.219 248.699 249.488L238.075 227.792L234.491 227.408Z" fill="#FFFD67"/>
</svg>
